<?xml version="1.0" standalone="no"?>
<!DOCTYPE svg PUBLIC "-//W3C//DTD SVG 20010904//EN"
 "http://www.w3.org/TR/2001/REC-SVG-20010904/DTD/svg10.dtd">
<svg version="1.0" xmlns="http://www.w3.org/2000/svg"
 width="1536.000000pt" height="1024.000000pt" viewBox="0 0 1536.000000 1024.000000"
 preserveAspectRatio="xMidYMid meet">

<g transform="translate(0.000000,1024.000000) scale(0.100000,-0.100000)"
fill="#000000" stroke="none">
<path d="M10670 7844 c-213 -53 -703 -164 -723 -164 -35 0 -9 -16 123 -73 68
-30 125 -58 126 -63 2 -8 -311 -250 -556 -429 -37 -27 -234 -175 -438 -329
-203 -153 -373 -279 -377 -279 -10 0 -272 141 -583 315 -156 87 -288 158 -294
158 -5 0 -184 -134 -396 -297 -213 -163 -430 -330 -482 -370 -239 -183 -299
-229 -442 -340 -84 -65 -229 -177 -323 -248 -93 -71 -234 -179 -312 -240 -78
-60 -203 -157 -278 -215 -421 -324 -1027 -798 -1075 -841 l-55 -49 50 29 c28
16 113 75 190 131 77 55 212 151 300 212 88 62 282 199 430 307 149 107 290
208 315 226 252 178 1721 1224 2044 1457 l51 36 330 -172 c182 -95 377 -198
434 -229 57 -31 105 -57 106 -57 4 0 712 507 1091 781 388 279 393 283 397
278 2 -2 23 -61 47 -131 50 -147 41 -148 118 17 54 117 221 465 266 553 14 28
23 52 19 51 -5 0 -51 -12 -103 -25z"/>
<path d="M10070 5645 l0 -1385 80 0 80 0 -2 1383 -3 1382 -77 3 -78 3 0 -1386z"/>
<path d="M10360 5645 l0 -1385 80 0 80 0 -2 1383 -3 1382 -77 3 -78 3 0 -1386z"/>
<path d="M10650 5645 l0 -1385 75 0 75 0 0 1385 0 1385 -75 0 -75 0 0 -1385z"/>
<path d="M9340 5435 l0 -1175 275 0 275 0 -5 893 c-4 490 -6 1019 -6 1175 l1
282 -270 0 -270 0 0 -1175z m98 1146 c-23 -37 -78 -33 -78 5 0 10 13 14 45 14
42 0 44 -1 33 -19z m403 -3 c-10 -27 -26 -29 -63 -11 -47 23 -42 33 16 33 53
0 55 -1 47 -22z"/>
<path d="M7840 5360 l0 -1100 270 0 270 0 0 1094 c0 719 -3 1097 -10 1101 -5
3 -10 3 -10 -2 0 -14 -56 -34 -102 -36 -24 -2 -48 -6 -54 -9 -21 -14 -162 -19
-243 -10 -63 8 -88 15 -98 29 -13 17 -6 18 189 23 l203 6 -207 2 -208 2 0
-1100z"/>
<path d="M4720 5580 l0 -860 70 47 69 48 1 813 0 812 -70 0 -70 0 0 -860z"/>
<path d="M4942 5670 c2 -423 6 -769 10 -767 4 1 37 25 73 52 l64 50 1 718 0
717 -75 0 -76 0 3 -770z"/>
<path d="M5190 5758 l0 -682 28 26 c15 13 48 40 75 58 l47 33 0 624 0 623 -75
0 -75 0 0 -682z"/>
<path d="M5430 5865 l0 -576 58 41 c31 23 65 48 75 55 18 12 19 41 20 532 l2
518 -77 3 -78 3 0 -576z"/>
<path d="M5687 6433 c-10 -17 -19 -272 -19 -508 1 -247 16 -429 34 -403 10 15
7 908 -4 914 -3 2 -9 1 -11 -3z"/>
<path d="M5770 6123 c-1 -175 -3 -376 -6 -447 -6 -142 -10 -137 59 -83 l37 29
0 409 0 409 -45 0 -45 0 0 -317z"/>
<path d="M6005 6378 c-3 -35 -5 -195 -3 -356 l3 -294 51 41 52 41 -3 258 c-1
141 -3 283 -4 315 l-1 57 -44 0 -44 0 -7 -62z"/>
<path d="M6250 6180 l0 -261 40 32 40 32 0 229 0 228 -40 0 -40 0 0 -260z"/>
<path d="M6410 6246 c0 -108 2 -196 5 -196 3 0 19 10 36 22 l29 22 -5 171 -6
170 -29 3 -30 3 0 -195z"/>
<path d="M6570 6304 l0 -136 48 41 49 40 2 69 c1 38 -1 81 -5 96 -5 23 -11 26
-50 26 l-44 0 0 -136z"/>
<path d="M9120 5998 c0 -123 0 -125 -25 -138 -14 -7 -25 -17 -25 -22 0 -4 -4
-8 -9 -8 -5 0 -37 -16 -70 -34 -34 -19 -89 -45 -122 -57 -57 -21 -66 -22 -136
-10 -128 22 -131 24 -136 89 -2 31 -4 -306 -5 -750 l-2 -808 275 0 274 0 -6
928 c-3 510 -7 929 -9 931 -2 2 -4 -52 -4 -121z"/>
<path d="M7622 5667 c-2 -23 -5 -26 -19 -19 -12 7 -47 -6 -137 -51 -111 -56
-126 -61 -181 -60 l-60 2 -17 -39 c-9 -22 -25 -43 -35 -47 -28 -11 -43 -29
-51 -65 -5 -24 -8 -6 -13 72 -3 58 -6 -189 -7 -547 l-2 -653 271 0 271 0 -3
578 c-2 486 -12 931 -17 829z"/>
<path d="M6881 5266 c0 -27 -4 -47 -7 -43 -4 3 -22 -5 -41 -18 -20 -13 -73
-36 -120 -51 l-85 -28 -132 16 c-72 9 -133 14 -135 12 -2 -2 -6 -204 -9 -449
l-5 -445 274 0 274 0 -3 512 c-2 282 -4 520 -6 528 -2 8 -4 -7 -5 -34z"/>
<path d="M6000 4745 l0 -485 81 0 c79 0 81 1 75 23 -3 12 -6 230 -6 485 l0
462 -75 0 -75 0 0 -485z"/>
<path d="M5700 4655 l0 -395 80 0 80 0 0 395 0 395 -80 0 -80 0 0 -395z"/>
<path d="M5493 4893 l-63 -14 0 -310 0 -309 75 0 75 0 0 325 c0 254 -3 325
-12 324 -7 0 -41 -7 -75 -16z"/>
<path d="M5258 4753 l-68 -46 0 -223 0 -224 75 0 75 0 0 270 c0 149 -3 270 -7
269 -5 0 -38 -21 -75 -46z"/>
<path d="M5013 4592 l-72 -47 2 -142 2 -143 75 0 75 0 -3 127 c-1 71 -3 156
-5 190 l-2 63 -72 -48z"/>
<path d="M4800 4460 c-30 -21 -61 -39 -67 -40 -9 0 -13 -23 -13 -80 l0 -80 70
0 70 0 0 120 c0 66 -1 120 -2 120 -2 -1 -28 -19 -58 -40z"/>
<path d="M6635 4099 c-569 -10 -1542 -47 -1840 -69 -71 -6 -167 -13 -212 -17
-46 -3 -83 -9 -83 -13 0 -3 154 -12 343 -19 188 -7 369 -15 402 -17 232 -15
1191 -24 2555 -24 1494 0 1984 6 2617 30 142 6 334 13 426 17 92 3 164 9 160
13 -11 11 -218 28 -488 40 -126 6 -306 15 -400 20 -93 6 -372 15 -620 20 -247
6 -623 15 -835 20 -430 11 -1386 11 -2025 -1z"/>
<path d="M4245 3604 c-100 -16 -194 -56 -262 -111 -145 -117 -191 -351 -108
-539 31 -70 126 -166 197 -199 131 -61 331 -72 466 -25 l63 22 -7 102 c-4 55
-8 102 -9 104 -1 1 -22 -6 -46 -16 -111 -48 -235 -52 -324 -13 -51 23 -111 89
-124 138 -29 102 -7 198 60 265 84 84 220 101 359 45 35 -15 65 -25 67 -23 1
1 4 47 5 102 l3 99 -68 23 c-67 22 -208 36 -272 26z"/>
<path d="M6255 3595 c-136 -30 -217 -78 -286 -170 -130 -173 -110 -447 44
-592 105 -99 224 -138 397 -130 71 3 127 12 172 27 l68 23 -6 71 c-9 122 -13
139 -32 130 -208 -90 -390 -58 -458 83 -49 100 -35 210 38 289 88 95 232 105
421 29 16 -7 17 2 17 99 l0 105 -54 16 c-124 36 -221 42 -321 20z"/>
<path d="M7591 3599 c-139 -23 -240 -103 -262 -207 -15 -76 -7 -134 28 -190
23 -38 42 -54 101 -83 41 -21 109 -44 159 -54 111 -23 161 -47 169 -82 15 -60
-37 -88 -161 -87 -92 1 -179 20 -246 55 l-37 18 -7 -96 c-8 -113 -10 -111 100
-146 104 -33 302 -32 399 2 133 46 208 158 192 284 -17 125 -99 188 -313 238
-97 22 -138 41 -153 69 -16 31 8 72 50 88 51 18 187 6 270 -24 37 -13 70 -24
72 -24 3 0 4 44 2 97 -2 71 -7 99 -17 105 -60 33 -246 53 -346 37z"/>
<path d="M9242 3595 c-224 -51 -355 -197 -369 -415 -12 -177 72 -338 215 -413
164 -87 346 -90 512 -10 67 33 158 122 189 185 97 202 39 454 -130 571 -114
78 -286 112 -417 82z m191 -197 c21 -6 59 -30 84 -52 146 -135 83 -398 -104
-436 -168 -35 -303 74 -303 243 0 75 19 125 70 179 67 72 155 95 253 66z"/>
<path d="M10290 3589 c-69 -19 -120 -41 -115 -50 4 -5 0 -6 -7 -4 -8 3 -22 -2
-33 -11 -11 -8 -14 -12 -6 -8 9 5 12 3 7 -5 -4 -6 -12 -9 -18 -5 -5 3 -33 -18
-62 -47 -88 -92 -122 -193 -113 -339 11 -196 118 -335 301 -393 104 -32 292
-32 389 1 l68 24 -7 101 c-4 56 -7 103 -8 104 -1 1 -30 -9 -65 -23 -129 -52
-279 -40 -358 29 -100 88 -112 256 -25 357 51 60 102 83 197 88 69 3 91 0 162
-25 l82 -30 3 100 c3 113 10 104 -97 133 -57 16 -241 17 -295 3z"/>
<path d="M4740 3478 c0 -62 -3 -258 -7 -435 l-6 -323 119 0 120 0 -4 230 c-3
138 -1 230 5 230 5 0 17 -17 27 -37 10 -21 54 -98 98 -170 l79 -133 67 0 67 1
65 112 c35 62 80 141 100 177 l35 65 3 -237 2 -238 120 0 120 0 0 203 c0 111
-3 307 -7 435 l-6 232 -106 0 -106 0 -69 -118 c-156 -264 -210 -352 -218 -352
-4 0 -35 48 -70 108 -34 59 -97 163 -138 232 l-76 125 -107 3 -107 3 0 -113z"/>
<path d="M8120 3580 c25 -4 38 -8 29 -8 -9 -1 -22 -9 -29 -17 -11 -14 -14 -13
-25 1 -10 14 -13 8 -18 -37 -4 -30 -7 -69 -7 -86 l0 -33 130 0 130 0 0 -340 0
-340 120 0 120 0 0 340 0 340 130 0 131 0 -2 95 -2 95 -376 -2 c-207 0 -356
-4 -331 -8z"/>
<path d="M10840 3155 l0 -435 115 0 115 0 0 180 c0 99 4 180 8 180 7 0 137
-150 272 -316 l35 -43 148 -1 148 0 -66 78 c-37 42 -125 146 -197 230 l-129
152 44 48 c77 83 231 254 261 290 28 32 29 35 12 48 -16 11 -15 13 16 17 18 2
-30 5 -108 5 l-141 2 -142 -165 c-78 -91 -146 -165 -151 -165 -6 0 -10 64 -10
165 l0 165 -115 0 -115 0 0 -435z m120 413 c-25 -5 -50 -10 -57 -12 -7 -1 -16
-5 -19 -9 -14 -14 -34 -6 -34 13 0 18 6 20 78 19 74 -1 76 -2 32 -11z"/>
<path d="M6750 3130 l0 -90 228 0 227 0 -3 90 -3 90 -225 0 -224 0 0 -90z"/>
</g>
</svg>
